<?xml version="1.0" encoding="utf-8"?>
<!-- Generator: Adobe Illustrator 25.0.0, SVG Export Plug-In . SVG Version: 6.00 Build 0)  -->
<svg version="1.1" id="图层_1" xmlns="http://www.w3.org/2000/svg" xmlns:xlink="http://www.w3.org/1999/xlink" x="0px" y="0px"
	 viewBox="0 0 200 200" style="enable-background:new 0 0 200 200;" xml:space="preserve">
<style type="text/css">
	.st0{fill:#231815;}
</style>
<path class="st0" d="M106.4,172.5c-36.9,0-74.2-11.9-74.2-34.7c0-6.2,3.2-17.9,24.6-26.4c13.4-5.3,31-8.3,49.6-8.3
	c36.9,0,74.2,11.9,74.2,34.7c0,6.2-3.2,17.9-24.6,26.4C142.6,169.5,125,172.5,106.4,172.5z M106.4,120c-37.7,0-57.2,12.4-57.2,17.7
	s19.5,17.7,57.2,17.7s57.2-12.4,57.2-17.7S144.2,120,106.4,120z"/>
<path class="st0" d="M106.4,99c-21.7,0-39.2-17.5-39.2-39.2s17.5-39.2,39.2-39.2c21.7,0,39.2,17.5,39.2,39.2c0,0,0,0,0,0
	C145.6,81.5,128.1,99,106.4,99z M106.4,37.6c-12.3,0-22.2,9.9-22.2,22.2s9.9,22.2,22.2,22.2s22.2-9.9,22.2-22.2c0,0,0,0,0,0
	C128.6,47.6,118.7,37.6,106.4,37.6z"/>
</svg>
