<svg id="图层_1" data-name="图层 1" xmlns="http://www.w3.org/2000/svg" viewBox="0 0 200 200"><defs><style>.cls-1{fill:#fff;}.cls-2{fill:#231815;}</style></defs><ellipse class="cls-1" cx="106.43" cy="137.73" rx="65.7" ry="26.23"/><path class="cls-2" d="M106.43,172.46c-36.88,0-74.2-11.93-74.2-34.73,0-6.21,3.19-17.9,24.59-26.44,13.39-5.35,31-8.29,49.61-8.29,36.87,0,74.19,11.93,74.19,34.73,0,6.21-3.19,17.9-24.59,26.44C142.65,169.52,125,172.46,106.43,172.46Zm0-52.46c-37.74,0-57.2,12.43-57.2,17.73s19.46,17.73,57.2,17.73,57.19-12.43,57.19-17.73S144.16,120,106.43,120Z"/><circle class="cls-1" cx="106.43" cy="59.84" r="30.71"/><path class="cls-2" d="M106.43,99.05a39.22,39.22,0,1,1,39.21-39.21A39.26,39.26,0,0,1,106.43,99.05Zm0-61.43a22.22,22.22,0,1,0,22.21,22.22A22.25,22.25,0,0,0,106.43,37.62Z"/></svg>