<svg id="图层_1" data-name="图层 1" xmlns="http://www.w3.org/2000/svg" viewBox="0 0 200 200"><defs><style>.cls-1{fill:#ffd500;stroke:#231815;stroke-width:17px;}.cls-1,.cls-3{stroke-linecap:round;}.cls-1,.cls-2,.cls-3{stroke-miterlimit:10;}.cls-2{fill:#221714;stroke-width:2px;}.cls-2,.cls-3{stroke:#221714;}.cls-3{fill:none;stroke-width:10px;}</style></defs><path class="cls-1" d="M176.23,39.37H29.84A9.7,9.7,0,0,0,20.08,49v86.71a9.69,9.69,0,0,0,9.76,9.63H176.23a9.7,9.7,0,0,0,9.76-9.63V49A9.71,9.71,0,0,0,176.23,39.37Z"/><circle class="cls-1" cx="41.02" cy="145.35" r="30.71"/><path class="cls-2" d="M95,96.4h4v8.06H86.9v8.07H99v8.06h8.07v-8.06h4a12.1,12.1,0,0,0,0-24.2h-4V80.27h12.1V72.2h-12.1V64.14H99V72.2H95a12.1,12.1,0,1,0,0,24.2Zm12.1,0h4a4,4,0,0,1,0,8.06h-4ZM95,80.27h4v8.06H95a4,4,0,0,1,0-8.06Z"/><line class="cls-3" x1="41.02" y1="133.14" x2="41.02" y2="147.14"/><line class="cls-3" x1="41.02" y1="147.22" x2="51.67" y2="147.22"/></svg>